<?xml version="1.0" encoding="UTF-8"?>
<!DOCTYPE svg PUBLIC "-//W3C//DTD SVG 20010904//EN"
 "http://www.w3.org/TR/2001/REC-SVG-20010904/DTD/svg10.dtd">
<svg version="1.0" xmlns="http://www.w3.org/2000/svg"
 width="50px" height="45px" viewBox="100 220 800 480"
 preserveAspectRatio="xMidYMid meet">

<g transform="translate(0.000000,876.000000) scale(0.100000,-0.100000)"
fill="#000000" stroke="none">
<path d="M4307 7733 c-4 -3 -51 -8 -104 -9 -198 -7 -254 -11 -266 -23 -6 -6
-38 -11 -72 -11 -33 0 -80 -8 -105 -17 -41 -15 -87 -24 -195 -39 -22 -4 -47
-12 -55 -18 -8 -7 -44 -18 -78 -24 -35 -6 -83 -20 -105 -31 -23 -10 -67 -28
-97 -39 -30 -11 -81 -32 -113 -46 -32 -14 -64 -26 -72 -26 -8 0 -31 -11 -51
-25 -20 -14 -53 -29 -73 -35 -21 -5 -55 -23 -77 -40 -21 -16 -49 -30 -60 -30
-12 0 -36 -13 -54 -30 -18 -16 -38 -30 -45 -30 -7 0 -29 -14 -50 -30 -21 -17
-49 -33 -62 -36 -12 -4 -23 -10 -23 -15 0 -5 -6 -9 -14 -9 -8 0 -16 -3 -18 -7
-5 -12 -75 -63 -86 -63 -5 0 -15 -7 -22 -15 -7 -9 -44 -37 -82 -62 -37 -25
-68 -50 -68 -55 0 -15 -27 -38 -44 -38 -18 0 -186 -163 -186 -180 0 -5 -6 -10
-14 -10 -7 0 -32 -20 -55 -45 -22 -24 -41 -42 -41 -38 0 3 -14 -13 -31 -37
-18 -24 -45 -54 -60 -68 -16 -13 -29 -29 -29 -35 0 -7 -15 -28 -34 -48 -18
-21 -43 -53 -55 -73 -13 -20 -27 -36 -32 -36 -5 0 -18 -18 -29 -40 -12 -23
-27 -43 -35 -47 -8 -3 -15 -12 -15 -20 0 -8 -13 -27 -29 -42 -17 -16 -33 -40
-37 -54 -3 -15 -10 -27 -15 -27 -5 0 -9 -10 -9 -23 0 -12 -9 -28 -20 -35 -11
-7 -20 -19 -20 -28 0 -8 -10 -25 -23 -38 -28 -28 -87 -146 -87 -174 0 -12 -5
-24 -11 -27 -5 -4 -15 -17 -20 -28 -5 -12 -20 -40 -34 -62 -13 -22 -24 -51
-25 -64 0 -14 -8 -33 -17 -43 -22 -25 -43 -81 -52 -142 -5 -29 -14 -52 -24
-58 -10 -5 -17 -20 -17 -34 0 -14 -4 -33 -10 -43 -5 -10 -11 -40 -13 -66 -3
-26 -9 -50 -14 -54 -10 -6 -23 -58 -24 -93 0 -9 -7 -19 -15 -22 -10 -4 -14
-22 -14 -65 0 -65 -27 -220 -41 -237 -5 -6 -6 -25 -3 -42 4 -17 3 -39 -1 -49
-4 -10 -10 -29 -12 -43 -10 -48 -11 -638 -2 -676 5 -21 12 -68 15 -104 3 -36
10 -73 16 -83 5 -10 10 -38 12 -62 1 -24 5 -48 9 -51 4 -4 7 -33 7 -65 0 -32
5 -61 10 -64 6 -3 10 -16 10 -28 0 -12 10 -47 21 -77 12 -30 26 -75 31 -100 5
-25 12 -58 15 -75 3 -16 12 -34 19 -38 7 -4 19 -34 26 -67 6 -33 15 -60 19
-60 4 0 10 -15 13 -34 4 -19 13 -39 21 -46 8 -7 15 -21 15 -31 0 -10 5 -21 10
-24 6 -3 10 -16 10 -28 0 -12 9 -33 20 -47 11 -14 20 -30 20 -37 0 -23 112
-241 159 -313 10 -14 25 -44 36 -67 10 -24 22 -43 26 -43 4 0 19 -24 33 -53
13 -29 34 -61 45 -71 12 -11 26 -36 31 -57 7 -27 17 -39 32 -41 11 -2 24 -10
28 -18 35 -74 45 -90 57 -90 7 0 18 -11 23 -25 5 -14 15 -25 21 -25 18 0 58
-51 64 -82 4 -15 13 -28 20 -28 8 0 19 -9 25 -20 6 -11 16 -20 23 -20 7 0 20
-14 29 -30 9 -17 29 -35 43 -40 14 -5 30 -21 35 -35 5 -14 16 -25 23 -25 8 0
25 -16 38 -35 13 -19 37 -40 52 -46 15 -7 32 -20 38 -30 5 -11 16 -19 23 -19
7 0 24 -16 37 -35 13 -19 32 -35 42 -35 18 0 33 -10 70 -46 12 -12 36 -28 53
-37 17 -9 34 -23 37 -30 3 -8 20 -17 37 -20 17 -4 44 -20 58 -37 15 -16 35
-30 45 -30 27 0 57 -19 57 -36 0 -8 13 -17 30 -20 16 -4 35 -13 41 -20 6 -8
18 -14 25 -14 7 0 28 -9 46 -20 18 -11 43 -20 56 -20 13 0 33 -11 46 -24 12
-14 43 -30 72 -36 49 -12 81 -23 118 -42 29 -15 129 -47 148 -48 9 0 33 -10
54 -22 34 -20 78 -32 167 -45 20 -3 40 -9 43 -14 3 -5 18 -9 35 -9 16 0 29 -4
29 -10 0 -5 21 -10 48 -10 26 0 70 -7 97 -16 85 -27 230 -45 475 -59 129 -7
237 -12 240 -10 6 3 248 18 315 19 37 1 50 5 53 17 3 14 -4 15 -50 7 -29 -4
-68 -6 -85 -3 -18 3 -33 2 -33 -3 0 -10 -250 -8 -465 3 -117 6 -198 16 -350
44 -27 5 -54 7 -58 4 -5 -3 -19 -1 -30 5 -27 12 -84 27 -162 42 -33 7 -82 22
-110 35 -27 13 -70 26 -94 29 -24 4 -53 13 -64 21 -12 8 -29 15 -38 15 -9 0
-28 9 -42 20 -14 11 -38 20 -54 20 -18 0 -50 14 -79 35 -27 20 -61 35 -77 35
-15 0 -35 9 -44 20 -10 11 -24 20 -33 20 -8 0 -24 7 -34 15 -11 8 -28 15 -38
15 -10 0 -18 7 -18 15 0 9 -9 15 -25 15 -16 0 -25 6 -25 15 0 8 -9 15 -19 15
-11 0 -21 3 -23 8 -1 4 -25 18 -53 32 -27 14 -59 35 -70 46 -21 22 -73 56
-112 74 -13 5 -23 14 -23 20 0 5 -9 10 -21 10 -12 0 -23 8 -26 20 -3 11 -10
20 -17 20 -6 0 -28 16 -49 35 -21 19 -42 35 -48 35 -5 0 -9 4 -9 9 0 6 -12 16
-27 23 -15 7 -34 26 -41 41 -10 20 -20 27 -43 27 -18 0 -29 5 -29 14 0 19 -87
109 -127 132 -18 10 -33 26 -33 36 0 10 -7 21 -15 24 -8 4 -15 12 -15 18 0 7
-11 18 -24 25 -13 7 -30 28 -39 47 -11 22 -24 34 -37 34 -11 0 -20 7 -20 15 0
8 -4 15 -10 15 -5 0 -10 6 -10 14 0 7 -15 25 -34 39 -18 14 -41 42 -50 61 -9
20 -21 36 -25 36 -4 0 -23 22 -42 50 -19 27 -37 50 -41 50 -5 0 -8 11 -8 23 0
14 -15 39 -35 60 -19 19 -37 46 -40 60 -4 14 -18 34 -31 46 -13 11 -24 28 -24
36 0 8 -11 34 -25 57 -14 24 -39 72 -55 108 -17 36 -37 77 -45 92 -8 14 -15
33 -15 41 0 8 -6 20 -13 26 -8 6 -22 37 -31 68 -10 32 -27 77 -37 101 -11 23
-19 50 -19 59 0 22 -18 80 -36 116 -8 16 -14 40 -14 53 0 14 -7 38 -14 53 -8
15 -17 55 -20 87 -9 90 -30 196 -46 224 -16 28 -20 112 -6 122 6 4 4 13 -3 22
-8 10 -15 53 -17 113 -4 122 -14 202 -25 209 -5 3 -4 14 2 26 6 11 11 66 11
122 -1 200 -1 221 6 226 4 3 8 43 8 90 3 159 20 305 40 321 9 8 10 17 3 36 -6
17 -5 34 5 56 8 18 17 59 21 92 7 68 23 123 42 146 7 8 13 24 13 35 0 23 39
144 51 159 4 6 13 33 19 60 9 45 29 95 52 135 4 8 20 41 34 73 15 31 31 57 35
57 5 0 9 11 9 24 0 13 7 29 15 36 8 7 20 31 27 54 7 22 15 43 18 46 19 14 80
115 80 130 0 10 14 28 30 40 17 12 30 30 30 41 0 11 5 25 10 32 22 25 58 86
65 106 3 12 17 28 30 37 13 8 28 29 34 45 5 16 21 33 34 38 14 6 31 25 40 48
8 21 24 45 34 54 10 9 41 42 68 74 28 31 68 75 90 96 22 22 44 43 49 48 4 5
16 17 25 27 22 23 93 85 191 166 41 34 80 67 85 73 6 7 28 25 49 41 22 16 51
39 64 52 14 12 33 22 43 22 9 0 19 4 21 9 4 12 179 121 194 121 6 0 26 14 44
30 20 19 43 30 61 30 16 0 29 4 29 8 0 10 77 62 92 62 21 0 108 33 108 41 0 5
25 16 55 24 30 9 57 21 60 26 4 5 17 9 30 9 13 0 25 5 27 11 3 10 55 26 116
36 17 3 32 9 32 14 0 5 8 9 18 9 10 0 27 7 38 15 10 8 28 15 39 15 21 0 182
36 233 51 18 6 54 11 80 11 26 0 53 5 60 11 7 6 23 11 35 12 12 1 81 8 152 14
72 7 170 14 219 16 48 2 91 6 94 9 3 3 -4 6 -16 6 -12 0 -22 5 -22 10 0 11
-53 14 -63 3z"/>
<path d="M4448 7717 c20 -6 44 -7 64 -1 29 9 25 10 -32 11 -58 0 -62 -1 -32
-10z"/>
<path d="M4610 7720 c-62 -9 -16 -20 121 -26 128 -6 133 -5 111 11 -17 12 -26
14 -36 6 -7 -6 -16 -8 -19 -5 -3 4 -32 8 -64 11 -32 2 -62 5 -68 7 -5 1 -26
-1 -45 -4z"/>
<path d="M5015 7670 c-3 -4 6 -10 20 -12 14 -3 25 -2 25 2 0 11 -39 20 -45 10z"/>
<path d="M5160 7636 c0 -2 9 -6 20 -9 11 -3 18 -1 14 4 -5 9 -34 13 -34 5z"/>
<path d="M4529 7606 c-3 -3 -84 -8 -179 -10 -170 -5 -242 -13 -325 -35 -22 -6
-55 -11 -73 -11 -18 0 -40 -4 -50 -9 -9 -5 -51 -14 -92 -20 -41 -7 -77 -17
-81 -23 -6 -9 -14 -9 -35 1 -26 12 -43 4 -44 -20 0 -4 -29 -12 -64 -19 -39 -7
-72 -20 -82 -31 -10 -11 -25 -17 -34 -14 -10 3 -23 -1 -30 -10 -7 -8 -25 -15
-41 -15 -40 0 -108 -31 -115 -52 -4 -12 -16 -18 -38 -18 -20 0 -40 -8 -50 -19
-10 -11 -31 -23 -47 -26 -16 -4 -29 -11 -29 -16 0 -5 -13 -9 -29 -9 -16 0 -34
-7 -41 -15 -7 -8 -37 -27 -67 -42 -31 -16 -58 -34 -60 -40 -3 -7 -14 -13 -24
-13 -11 0 -22 -7 -25 -15 -3 -8 -21 -19 -39 -25 -18 -6 -59 -36 -91 -66 -32
-29 -62 -54 -67 -54 -6 0 -23 -13 -39 -30 -15 -16 -32 -30 -36 -30 -5 0 -21
-13 -37 -30 -16 -16 -35 -30 -42 -30 -8 0 -43 -29 -77 -64 -35 -35 -73 -67
-84 -70 -12 -4 -24 -16 -27 -26 -3 -11 -19 -29 -35 -40 -16 -11 -31 -28 -34
-38 -3 -10 -19 -25 -35 -35 -15 -9 -34 -30 -40 -46 -7 -16 -21 -32 -31 -37
-17 -8 -59 -56 -137 -157 -18 -23 -41 -53 -52 -67 -68 -86 -81 -104 -87 -122
-6 -21 -24 -46 -62 -85 -12 -13 -22 -35 -22 -48 0 -15 -10 -31 -24 -41 -14 -9
-32 -36 -41 -62 -8 -26 -29 -65 -45 -86 -17 -22 -30 -49 -30 -60 0 -12 -7 -30
-15 -40 -8 -11 -15 -26 -15 -34 0 -8 -6 -20 -14 -26 -8 -6 -17 -26 -21 -44
l-7 -34 26 17 c14 10 26 26 26 37 0 11 6 32 14 46 8 15 31 63 51 107 21 44 46
89 55 100 10 11 28 41 40 68 12 26 25 47 29 47 9 0 51 82 51 98 0 6 9 14 20
17 11 3 20 10 20 14 0 13 63 105 87 126 13 11 23 26 23 32 0 6 19 31 43 56 64
68 132 147 135 158 2 5 10 9 18 9 7 0 21 14 29 30 9 17 27 35 41 41 14 5 28
18 31 29 3 11 15 22 27 26 20 6 108 89 117 110 2 5 30 26 62 47 31 20 57 42
57 47 0 6 9 10 19 10 11 0 27 7 35 16 28 28 120 94 131 94 6 0 16 9 23 20 7
11 20 20 30 20 9 0 28 9 42 20 14 11 28 20 32 20 4 0 27 14 51 30 25 17 51 30
59 30 8 0 25 9 38 20 13 11 31 20 41 20 10 0 21 5 24 10 3 6 13 10 22 10 8 0
26 9 40 20 14 11 33 20 43 20 9 0 25 9 35 20 10 11 26 20 35 20 10 0 30 7 46
14 15 8 31 13 36 10 4 -3 19 2 32 11 23 15 97 38 169 52 15 3 32 14 38 25 8
15 18 19 41 16 29 -5 90 10 104 25 4 4 25 7 46 7 21 0 50 7 63 16 13 9 29 13
35 9 5 -3 15 -3 22 1 7 4 44 9 82 11 39 2 73 8 76 12 5 8 85 22 125 22 10 0
25 5 32 10 6 6 21 8 33 4 12 -4 27 -2 34 4 13 11 545 9 576 -2 8 -3 40 -8 70
-11 128 -13 289 -46 400 -81 41 -13 95 -27 120 -30 25 -4 72 -20 104 -36 33
-16 73 -29 89 -29 17 0 51 -13 76 -29 25 -16 65 -35 89 -42 24 -7 49 -20 56
-30 6 -10 25 -21 41 -25 17 -4 42 -15 57 -25 14 -11 30 -19 35 -19 5 0 16 -9
26 -20 9 -11 26 -20 38 -20 11 0 35 -11 53 -25 18 -14 42 -25 54 -25 12 0 26
-9 32 -19 17 -33 41 -51 67 -51 17 0 27 -7 30 -20 3 -11 16 -23 29 -26 13 -4
33 -19 44 -35 14 -18 37 -33 67 -41 36 -10 49 -19 53 -37 3 -15 17 -28 36 -35
17 -6 58 -39 92 -73 34 -34 72 -63 84 -65 17 -2 24 -11 26 -30 2 -16 8 -28 13
-28 6 0 7 -4 4 -10 -3 -5 1 -10 10 -10 11 0 15 -5 11 -16 -4 -11 -1 -14 13 -9
14 4 36 -11 85 -60 63 -63 83 -94 51 -81 -22 8 -18 -12 5 -24 11 -6 19 -7 18
-3 -11 32 50 -6 70 -44 16 -29 15 -34 -4 -26 -14 5 -14 3 -3 -15 9 -15 17 -18
25 -11 13 11 28 -5 29 -31 0 -8 5 -15 12 -15 20 0 28 -16 13 -26 -13 -8 -13
-10 0 -19 8 -6 23 -8 33 -6 15 4 17 0 12 -24 -5 -24 0 -34 36 -69 24 -23 47
-41 52 -41 4 0 5 -9 2 -20 -5 -15 0 -26 19 -41 15 -11 24 -24 21 -29 -2 -4 4
-19 15 -33 11 -14 20 -32 20 -41 0 -9 6 -16 14 -16 8 0 24 -20 36 -45 12 -25
28 -45 36 -45 9 0 14 -11 14 -29 0 -42 41 -143 60 -148 16 -4 40 -67 40 -107
0 -13 6 -26 14 -29 7 -3 16 -21 20 -40 4 -19 13 -40 20 -46 14 -12 30 -66 27
-89 -1 -8 2 -19 7 -25 5 -7 12 -29 16 -50 4 -21 14 -41 22 -44 8 -3 14 -19 14
-41 0 -19 7 -43 16 -53 13 -14 13 -20 2 -38 -10 -16 -10 -23 0 -33 6 -6 12
-20 12 -30 0 -10 4 -26 9 -36 18 -34 30 -99 41 -211 6 -63 12 -117 14 -120 6
-10 19 -261 17 -321 -8 -175 -10 -217 -20 -335 -6 -71 -16 -144 -22 -161 -5
-17 -9 -44 -8 -60 3 -39 -11 -113 -22 -120 -5 -3 -9 -20 -9 -39 0 -19 -4 -37
-10 -40 -5 -3 -10 -15 -10 -26 0 -25 -27 -114 -46 -154 -8 -17 -12 -38 -9 -47
4 -9 0 -18 -9 -21 -9 -4 -16 -16 -16 -28 0 -11 -6 -35 -14 -52 -8 -18 -17 -49
-21 -70 -3 -21 -13 -41 -21 -44 -7 -3 -14 -13 -14 -22 0 -9 -7 -29 -15 -45 -8
-15 -15 -36 -15 -46 0 -10 -9 -22 -20 -25 -12 -4 -20 -15 -20 -28 0 -13 -6
-31 -14 -42 -7 -11 -16 -33 -20 -50 -4 -16 -16 -39 -26 -50 -10 -11 -21 -30
-25 -42 -3 -13 -11 -23 -16 -23 -5 0 -9 -7 -9 -15 0 -9 -7 -18 -16 -22 -8 -3
-13 -12 -10 -20 3 -7 -1 -16 -9 -19 -8 -4 -15 -14 -15 -23 0 -9 -14 -29 -30
-45 -18 -17 -30 -40 -30 -55 0 -19 -9 -30 -33 -42 -23 -11 -33 -24 -35 -44 -5
-36 -24 -64 -54 -79 -13 -6 -24 -22 -26 -34 -2 -12 -14 -30 -28 -38 -13 -9
-24 -25 -24 -35 0 -11 -7 -19 -15 -19 -9 0 -25 -16 -36 -35 -12 -19 -25 -35
-30 -35 -5 0 -12 -7 -16 -16 -3 -9 -30 -41 -60 -71 -29 -30 -53 -59 -53 -64 0
-5 -11 -14 -25 -19 -14 -5 -25 -16 -25 -25 0 -8 -12 -22 -27 -32 -16 -10 -38
-28 -50 -40 -12 -13 -27 -23 -32 -23 -6 0 -15 -9 -21 -20 -6 -11 -17 -20 -24
-20 -7 0 -27 -16 -45 -35 -17 -19 -38 -35 -46 -35 -7 0 -23 -14 -35 -30 -12
-17 -27 -30 -34 -30 -7 0 -24 -12 -39 -28 -14 -15 -43 -36 -64 -47 -21 -11
-54 -32 -73 -48 -19 -15 -40 -32 -47 -37 -7 -6 -19 -10 -26 -10 -8 0 -20 -7
-27 -15 -20 -24 -93 -63 -132 -70 -21 -4 -48 -18 -62 -31 -13 -14 -47 -31 -75
-40 -28 -8 -73 -26 -100 -39 -27 -14 -58 -25 -69 -25 -11 0 -25 -7 -32 -15 -7
-8 -19 -15 -28 -15 -9 0 -34 -8 -56 -18 -23 -11 -70 -24 -106 -31 -36 -6 -78
-18 -95 -25 -40 -18 -114 -34 -202 -41 -40 -4 -77 -13 -83 -20 -7 -8 -26 -11
-55 -7 -28 3 -45 1 -45 -6 0 -17 -35 -23 -64 -12 -17 6 -34 7 -45 1 -30 -16
-416 -34 -489 -22 -28 4 -58 3 -70 -2 -15 -7 -29 -7 -45 1 -12 7 -71 14 -132
17 -161 7 -265 17 -265 25 0 14 -55 29 -132 36 -47 4 -82 12 -89 20 -6 8 -19
14 -29 14 -9 0 -20 3 -24 7 -4 4 -13 8 -19 8 -26 1 -117 28 -123 36 -3 5 -15
7 -28 3 -14 -3 -27 1 -35 10 -8 9 -24 16 -37 16 -12 0 -26 5 -29 10 -3 6 -17
10 -30 10 -12 0 -49 14 -80 30 -31 17 -63 30 -69 30 -7 0 -21 9 -31 20 -10 11
-26 20 -37 20 -10 0 -26 4 -36 10 -9 5 -51 26 -92 46 -101 49 -138 69 -159 88
-10 9 -21 16 -24 16 -4 0 -30 16 -57 35 -27 19 -54 35 -58 35 -5 0 -19 12 -33
26 -13 14 -39 32 -56 39 -18 8 -33 21 -33 29 0 9 -16 20 -39 27 -27 8 -41 19
-45 34 -4 14 -20 28 -46 38 -22 8 -43 24 -47 34 -9 23 -23 33 -50 33 -17 0
-23 6 -23 21 0 22 -36 58 -57 59 -7 0 -13 4 -13 8 0 15 -102 122 -115 122 -8
0 -21 17 -30 38 -11 24 -31 46 -51 57 -21 11 -37 29 -41 44 -6 24 -49 71 -65
71 -5 0 -8 7 -8 15 0 8 -4 15 -9 15 -5 0 -12 13 -16 29 -3 15 -17 34 -30 41
-14 7 -27 21 -30 31 -4 10 -19 28 -36 39 -20 15 -29 30 -29 48 0 16 -8 32 -20
40 -11 7 -30 35 -42 62 -12 28 -25 50 -30 50 -4 0 -8 6 -8 13 0 8 -9 22 -20
32 -11 10 -20 26 -20 36 0 19 -38 100 -51 109 -4 3 -10 17 -14 32 -4 15 -15
34 -26 43 -10 10 -23 34 -30 54 -14 43 -35 96 -55 134 -8 16 -14 36 -14 46 0
9 -7 26 -15 37 -8 10 -15 27 -15 37 0 9 -4 25 -10 35 -5 9 -19 51 -31 92 -12
41 -26 80 -29 85 -4 6 -11 37 -15 70 -4 33 -10 65 -15 70 -4 6 -10 33 -14 62
-4 28 -13 64 -21 80 -9 16 -15 56 -15 95 0 37 -4 78 -9 92 -16 42 -24 477 -11
636 13 164 24 262 39 335 5 28 14 77 19 110 5 33 17 83 25 110 8 28 30 96 47
153 18 57 30 106 27 109 -12 11 -27 -10 -27 -37 0 -15 -4 -30 -10 -32 -10 -3
-43 -105 -60 -186 -5 -23 -14 -51 -20 -61 -5 -10 -13 -45 -16 -77 -4 -33 -10
-63 -14 -69 -4 -5 -10 -37 -13 -70 -4 -33 -16 -123 -28 -200 -29 -185 -32
-571 -5 -735 20 -122 23 -143 31 -230 4 -36 11 -69 16 -74 5 -6 9 -22 9 -36 0
-14 11 -61 25 -104 14 -43 25 -89 25 -102 0 -12 4 -25 9 -28 5 -4 12 -29 16
-56 4 -28 13 -57 21 -65 8 -7 14 -22 14 -33 0 -10 7 -33 16 -50 8 -17 18 -48
21 -69 3 -21 11 -45 17 -53 21 -28 56 -98 56 -113 0 -8 7 -20 15 -27 8 -7 15
-25 15 -40 0 -18 9 -36 25 -48 16 -13 27 -34 31 -62 4 -23 13 -44 20 -47 8 -3
14 -13 14 -24 0 -10 9 -23 20 -29 11 -6 20 -18 20 -28 0 -9 17 -41 38 -71 20
-29 43 -64 50 -78 8 -13 20 -27 28 -30 8 -3 14 -18 14 -33 0 -19 8 -33 25 -44
14 -9 39 -41 56 -71 17 -30 34 -55 37 -55 4 0 41 -40 82 -90 41 -49 79 -89 84
-90 11 0 34 -29 46 -57 5 -13 18 -23 30 -23 13 0 20 -7 20 -20 0 -12 15 -29
40 -45 22 -14 40 -32 40 -40 0 -9 15 -23 34 -32 19 -9 40 -27 47 -40 7 -13 23
-26 35 -29 12 -3 27 -15 33 -27 6 -12 25 -30 41 -39 17 -9 30 -24 30 -33 0 -8
7 -15 16 -15 9 0 27 -9 41 -20 14 -11 33 -20 42 -20 9 0 34 -18 55 -40 22 -22
45 -40 52 -40 6 0 14 -7 18 -15 3 -9 18 -15 36 -15 23 0 30 -4 30 -20 0 -11 6
-20 13 -20 28 0 77 -32 77 -50 0 -12 10 -20 30 -24 17 -3 43 -9 58 -12 17 -3
36 -18 46 -34 9 -16 24 -28 34 -28 28 2 92 -12 92 -21 0 -10 72 -45 128 -61
23 -7 42 -17 42 -22 0 -4 10 -8 23 -8 13 0 32 -7 43 -15 10 -8 31 -15 47 -15
25 0 43 -6 87 -32 33 -18 58 -26 91 -29 19 -2 45 -9 59 -16 14 -7 37 -13 52
-13 15 0 30 -5 33 -10 4 -6 19 -9 35 -8 15 1 35 -3 43 -10 16 -13 56 -20 177
-29 41 -3 81 -10 87 -15 7 -6 24 -7 39 -4 14 4 32 2 38 -4 7 -5 44 -13 82 -16
73 -6 548 -6 624 1 77 6 144 16 160 25 8 4 37 8 64 9 27 1 54 6 61 11 6 5 21
7 33 3 16 -4 22 -1 20 7 -3 14 32 28 72 28 l25 1 -24 -10 c-31 -12 -20 -23 14
-15 17 4 25 12 23 24 -3 15 5 17 64 14 58 -3 67 -1 62 12 -5 12 2 18 25 22 17
4 31 10 31 15 0 5 9 9 20 9 11 0 20 -4 20 -9 0 -5 11 -8 25 -7 17 1 25 7 25
19 0 26 24 16 28 -11 4 -25 3 -25 37 -12 20 8 25 15 20 30 -5 16 -2 20 17 20
18 0 20 -2 8 -10 -8 -5 -12 -12 -8 -15 3 -3 18 5 33 19 16 15 34 26 41 26 8 0
14 5 14 10 0 6 5 10 11 10 6 0 9 -7 5 -15 -3 -8 -1 -15 4 -15 6 0 10 5 10 10
0 6 7 10 15 10 9 0 18 7 22 16 3 8 12 13 20 10 8 -3 12 -2 8 3 -3 5 14 12 37
16 24 4 52 15 63 25 11 10 45 28 75 41 30 13 57 26 60 30 3 4 25 16 50 28 46
21 130 88 98 78 -23 -8 -23 2 0 19 23 18 33 17 26 -1 -4 -8 -3 -15 1 -15 13 0
108 59 170 105 33 25 67 48 75 52 19 8 100 72 121 95 9 10 21 18 27 18 7 0 19
11 28 25 9 13 25 27 36 30 10 4 24 18 30 31 6 13 19 24 30 24 10 0 28 16 40
35 13 19 31 35 41 35 9 0 17 4 17 8 0 4 25 35 55 67 31 33 74 79 95 102 22 24
40 47 40 53 0 5 11 17 25 26 13 8 35 34 49 57 23 41 60 85 111 137 14 14 25
35 25 47 0 11 12 28 26 38 14 9 34 36 45 59 10 23 32 60 49 81 16 21 30 44 30
51 0 7 6 17 13 21 7 4 26 35 41 68 16 33 32 68 37 78 5 9 13 25 18 35 4 9 15
31 23 47 9 17 18 42 22 58 3 15 11 27 16 27 6 0 10 9 10 19 0 11 11 41 25 67
14 26 25 55 25 66 0 10 4 26 8 36 5 9 21 42 36 72 15 30 31 84 36 119 5 35 14
69 19 74 6 6 11 26 11 45 0 19 9 45 20 59 14 18 20 41 20 77 1 28 7 69 15 91
8 22 12 49 9 61 -3 12 -1 25 5 29 6 3 9 11 5 16 -3 5 0 16 6 25 16 19 20 82
26 462 4 223 2 312 -6 312 -7 0 -8 6 0 19 5 11 7 22 2 25 -4 2 -9 27 -10 55
-1 28 -9 71 -18 97 -8 25 -13 51 -11 58 3 7 -1 23 -9 37 -8 14 -13 56 -14 101
0 42 -4 80 -10 83 -5 3 -10 15 -10 26 0 10 -4 19 -8 19 -11 0 -34 49 -28 59 7
10 -23 123 -36 138 -6 7 -8 19 -5 27 3 7 -2 24 -11 37 -17 24 -22 38 -26 74
-4 31 -34 95 -44 95 -6 0 -13 20 -17 45 -3 25 -14 53 -24 63 -10 9 -24 33 -31
52 -28 74 -87 187 -108 208 -12 12 -22 31 -22 42 0 11 -9 28 -20 37 -11 10
-20 26 -20 36 0 9 -6 20 -14 23 -8 3 -18 19 -21 36 -4 17 -15 32 -24 35 -16 4
-23 16 -61 95 -7 15 -21 30 -32 34 -10 3 -18 11 -18 17 0 7 -16 29 -35 50 -19
21 -35 43 -35 48 0 5 -20 30 -45 56 -25 25 -45 49 -45 54 0 5 -7 9 -15 9 -8 0
-15 6 -15 14 0 8 -8 16 -17 18 -10 2 -18 12 -18 22 0 10 -9 24 -19 30 -25 14
-66 56 -66 68 0 5 -16 16 -35 24 -23 9 -35 21 -35 34 0 11 -6 20 -13 20 -7 0
-32 18 -55 40 -22 22 -45 40 -50 40 -14 0 -43 36 -35 43 3 4 -1 7 -9 7 -8 0
-36 18 -61 40 -25 22 -50 40 -56 40 -6 0 -11 5 -11 10 0 6 -7 10 -15 10 -7 0
-18 6 -22 13 -10 16 -110 87 -123 87 -6 0 -10 4 -10 9 0 5 -8 11 -17 15 -10 3
-31 15 -48 26 -16 11 -54 32 -82 46 -29 14 -53 30 -53 35 0 5 -9 9 -19 9 -11
0 -23 5 -26 10 -3 6 -15 10 -25 10 -10 0 -23 6 -27 13 -10 16 -58 37 -83 37
-10 0 -31 13 -47 28 -21 21 -41 30 -76 34 -27 3 -58 14 -70 24 -33 28 -64 44
-87 44 -22 0 -96 21 -165 47 -22 8 -64 19 -92 23 -29 5 -67 15 -85 23 -45 20
-110 37 -140 37 -13 0 -28 4 -34 9 -5 5 -31 12 -59 15 -55 7 -76 10 -180 26
-38 5 -144 14 -235 19 -91 5 -172 12 -181 15 -8 4 -17 4 -20 2z m2781 -1650
c0 -3 -4 -8 -10 -11 -5 -3 -10 -1 -10 4 0 6 5 11 10 11 6 0 10 -2 10 -4z
m-775 -4296 c-3 -5 -11 -10 -16 -10 -6 0 -7 5 -4 10 3 6 11 10 16 10 6 0 7 -4
4 -10z m-380 -249 c-3 -6 -11 -11 -17 -11 -6 0 -6 6 2 15 14 17 26 13 15 -4z
m-60 -31 c-3 -5 -18 -10 -33 -9 -24 0 -25 1 -7 9 28 12 47 12 40 0z m-65 -35
c0 -8 -9 -15 -19 -15 -10 0 -54 -18 -97 -40 -87 -45 -84 -43 -84 -31 0 14 74
61 96 61 11 0 38 9 60 20 48 24 44 23 44 5z m-250 -105 c-8 -5 -22 -10 -30
-10 -8 0 -21 -9 -28 -20 -7 -12 -23 -20 -40 -20 -25 1 -26 1 -7 12 11 6 22 15
25 19 8 11 51 28 75 28 17 1 17 -1 5 -9z m-150 -90 c0 -5 -4 -10 -10 -10 -5 0
-10 5 -10 10 0 6 5 10 10 10 6 0 10 -4 10 -10z"/>
<path d="M5320 7600 c20 -13 33 -13 25 0 -3 6 -14 10 -23 10 -15 0 -15 -2 -2
-10z"/>
<path d="M5460 7560 c-13 -8 -12 -10 3 -10 9 0 17 5 17 10 0 12 -1 12 -20 0z"/>
<path d="M5650 7491 c0 -6 4 -13 10 -16 6 -3 7 1 4 9 -7 18 -14 21 -14 7z"/>
<path d="M5788 7433 c7 -3 16 -2 19 1 4 3 -2 6 -13 5 -11 0 -14 -3 -6 -6z"/>
<path d="M2560 6969 c0 -5 5 -7 10 -4 6 3 10 8 10 11 0 2 -4 4 -10 4 -5 0 -10
-5 -10 -11z"/>
<path d="M2355 6800 c-3 -6 1 -7 9 -4 18 7 21 14 7 14 -6 0 -13 -4 -16 -10z"/>
<path d="M2040 6489 c0 -5 5 -7 10 -4 6 3 10 8 10 11 0 2 -4 4 -10 4 -5 0 -10
-5 -10 -11z"/>
<path d="M6870 6475 c0 -5 5 -17 10 -25 5 -8 10 -10 10 -5 0 6 -5 17 -10 25
-5 8 -10 11 -10 5z"/>
<path d="M1995 6429 c-4 -6 -5 -12 -2 -15 2 -3 7 2 10 11 7 17 1 20 -8 4z"/>
<path d="M1846 6244 c-9 -24 -2 -26 12 -4 7 11 8 20 3 20 -5 0 -12 -7 -15 -16z"/>
<path d="M1757 6113 c-4 -3 -7 -11 -7 -17 0 -6 5 -5 12 2 6 6 9 14 7 17 -3 3
-9 2 -12 -2z"/>
<path d="M1710 6040 c0 -5 5 -10 11 -10 5 0 7 5 4 10 -3 6 -8 10 -11 10 -2 0
-4 -4 -4 -10z"/>
<path d="M1690 6000 c-13 -8 -12 -10 3 -10 9 0 17 5 17 10 0 12 -1 12 -20 0z"/>
<path d="M3378 5990 c-15 -4 -40 -17 -57 -29 -16 -12 -34 -21 -41 -21 -6 0
-22 -13 -36 -29 -14 -17 -34 -33 -44 -36 -11 -4 -20 -12 -20 -19 0 -7 -13 -30
-30 -52 -16 -21 -30 -46 -30 -54 0 -9 -4 -20 -9 -25 -14 -15 -61 -136 -61
-158 0 -24 -37 -155 -50 -179 -6 -10 -10 -25 -10 -34 0 -10 -15 -65 -34 -123
-19 -58 -36 -114 -38 -125 -2 -13 -13 2 -34 45 -60 123 -94 197 -94 206 0 4
-15 40 -34 78 -62 125 -96 201 -96 212 0 6 -6 16 -14 22 -12 10 -18 8 -29 -11
-8 -13 -18 -34 -22 -48 -7 -26 -23 -64 -56 -134 -11 -22 -19 -47 -19 -55 -1
-9 -14 -41 -30 -71 -17 -30 -30 -61 -30 -67 0 -7 -14 -41 -31 -75 -17 -35 -34
-74 -38 -88 -7 -23 -10 -20 -34 34 -15 32 -27 66 -27 75 0 9 -16 54 -35 100
-19 45 -35 89 -35 97 0 7 -14 48 -31 90 -25 66 -28 81 -19 104 6 15 21 32 33
38 16 8 -31 11 -178 11 l-200 0 41 -22 c23 -12 48 -27 57 -32 9 -6 27 -42 40
-80 23 -66 51 -146 67 -190 5 -11 20 -46 34 -78 14 -32 26 -68 26 -81 0 -12 3
-26 6 -29 9 -9 54 -119 54 -132 0 -6 16 -49 35 -95 39 -94 42 -131 15 -175
-11 -16 -29 -48 -41 -69 -12 -22 -26 -45 -33 -51 -6 -7 -24 -29 -41 -49 -16
-20 -36 -36 -42 -36 -7 0 -13 -4 -13 -8 0 -10 -99 -62 -120 -63 -8 0 -3 -4 12
-9 17 -5 51 -3 91 6 56 13 73 23 135 80 40 36 72 71 72 77 0 7 11 24 24 40 13
15 29 42 36 60 7 17 26 60 42 95 15 35 28 68 28 73 0 5 16 41 35 79 19 38 35
74 35 80 0 6 14 40 30 75 17 35 30 68 30 72 0 4 12 36 27 70 26 59 43 79 43
51 0 -6 16 -44 35 -82 54 -112 95 -202 95 -211 0 -5 15 -41 34 -79 63 -130 94
-201 107 -238 16 -45 29 -49 29 -8 0 32 46 221 61 251 5 11 13 27 18 37 5 10
12 33 16 52 7 37 51 174 96 305 15 44 31 94 34 110 4 17 19 66 35 110 15 44
34 99 41 123 7 23 15 42 19 42 4 0 15 17 24 39 43 94 159 184 271 210 37 8 35
9 -30 9 -38 0 -82 -3 -97 -8z"/>
<path d="M1655 5940 c-3 -5 -1 -10 4 -10 6 0 11 5 11 10 0 6 -2 10 -4 10 -3 0
-8 -4 -11 -10z"/>
<path d="M1600 5844 c-17 -36 -30 -68 -30 -70 0 -3 -9 -17 -20 -32 -10 -15
-22 -40 -26 -57 l-6 -30 18 25 c10 14 20 27 23 30 3 3 6 10 7 15 0 6 10 32 22
58 12 27 22 52 22 56 0 4 9 16 20 26 21 19 27 45 10 45 -6 0 -24 -30 -40 -66z"/>
<path d="M3940 5676 c-66 -13 -92 -27 -137 -72 -66 -66 -91 -169 -61 -251 18
-48 23 -41 20 26 -5 76 14 130 65 184 34 37 51 46 102 57 99 21 188 -1 254
-63 126 -119 167 -402 82 -581 -14 -29 -25 -56 -25 -61 0 -12 -70 -88 -99
-107 -71 -47 -94 -53 -206 -53 -86 0 -116 4 -140 17 -16 10 -42 23 -57 30 -16
7 -28 16 -28 21 0 4 -13 20 -28 35 -52 49 -99 157 -107 247 -9 99 -8 198 4
291 10 79 61 197 99 227 25 21 29 37 9 37 -25 0 -143 -65 -184 -100 -95 -83
-151 -197 -160 -327 -6 -82 10 -198 28 -209 5 -3 9 -14 9 -24 0 -22 71 -120
117 -161 41 -37 124 -89 143 -89 9 0 20 -4 26 -8 5 -4 34 -17 64 -27 45 -17
82 -20 205 -20 99 0 164 5 190 13 89 30 152 57 182 79 17 13 34 23 38 23 10 0
88 83 104 112 9 14 25 41 35 60 22 38 46 152 46 220 0 100 -45 241 -82 256 -4
2 -8 9 -8 15 -1 14 -46 67 -57 67 -5 0 -14 9 -20 19 -24 38 -147 100 -230 116
-88 17 -115 17 -193 1z"/>
<path d="M5327 5675 c-121 -26 -200 -123 -201 -245 -1 -44 4 -72 15 -87 15
-21 15 -19 15 40 0 87 17 135 64 184 36 36 49 43 110 54 107 19 174 1 243 -65
89 -84 127 -192 127 -357 0 -110 -21 -211 -54 -254 -9 -11 -16 -26 -16 -33 0
-15 -72 -90 -105 -109 -76 -46 -100 -53 -195 -53 -86 0 -101 3 -154 30 -55 28
-134 103 -147 139 -3 9 -18 43 -34 76 -29 59 -29 62 -29 235 0 153 3 182 21
235 30 84 58 137 82 159 27 25 27 39 -1 31 -106 -30 -243 -145 -282 -238 -50
-118 -51 -121 -50 -222 1 -104 18 -173 61 -242 25 -42 114 -143 126 -143 4 0
23 -11 41 -25 18 -14 73 -40 122 -57 86 -32 94 -33 244 -32 149 0 158 1 244
32 50 18 101 40 114 50 14 9 33 22 42 27 29 18 89 81 123 132 63 91 89 281 53
384 -9 24 -16 52 -16 62 0 54 -124 185 -230 244 -100 56 -218 73 -333 48z"/>
<path d="M6215 5664 c-50 -11 -102 -29 -120 -41 -11 -7 -25 -13 -31 -13 -16 0
-104 -84 -104 -99 0 -7 -9 -26 -21 -42 -11 -16 -19 -37 -17 -46 2 -11 14 1 35
35 41 66 118 116 212 139 39 9 74 13 78 9 5 -4 8 -191 8 -415 0 -452 1 -447
-67 -468 -25 -8 36 -11 258 -12 274 -1 295 0 380 22 144 38 236 110 304 237
18 35 40 154 40 222 0 169 -59 284 -200 389 -19 14 -44 28 -55 32 -11 3 -45
15 -75 28 -52 21 -71 23 -330 25 -151 1 -284 0 -295 -2z m522 -69 c94 -39 168
-135 199 -256 31 -123 8 -349 -43 -410 -7 -8 -13 -22 -13 -29 0 -18 -65 -80
-107 -101 -52 -26 -124 -39 -223 -39 l-90 0 0 425 0 425 120 0 c85 0 131 -4
157 -15z"/>
<path d="M1498 5628 c-31 -48 -56 -115 -63 -163 l-6 -50 20 40 c12 21 21 47
21 56 0 10 6 30 14 46 31 62 39 83 34 88 -3 3 -12 -5 -20 -17z"/>
<path d="M1580 5568 c0 -6 -12 -26 -26 -45 -14 -19 -23 -37 -20 -40 3 -3 1
-12 -5 -20 -14 -16 1 -17 22 0 16 12 30 40 34 67 1 8 6 23 10 33 4 10 3 17 -4
17 -6 0 -11 -5 -11 -12z"/>
<path d="M1510 5404 c-6 -14 -10 -31 -10 -39 0 -7 -4 -15 -9 -17 -5 -1 -12
-27 -16 -57 -7 -50 -6 -53 8 -39 9 8 19 32 22 52 4 20 10 36 14 36 4 0 8 20 8
45 1 51 -3 56 -17 19z"/>
<path d="M1456 5214 c-9 -24 -2 -26 12 -4 7 11 8 20 3 20 -5 0 -12 -7 -15 -16z"/>
<path d="M1436 5131 c-3 -5 1 -11 9 -15 9 -3 15 0 15 9 0 16 -16 20 -24 6z"/>
<path d="M1422 5087 c-7 -9 -12 -32 -10 -54 3 -37 3 -37 16 -15 7 13 12 37 10
54 -3 28 -5 29 -16 15z"/>
<path d="M1380 4843 c0 -13 5 -23 10 -23 13 0 13 11 0 30 -8 12 -10 11 -10 -7z"/>
<path d="M1370 4756 c0 -9 5 -16 10 -16 6 0 10 4 10 9 0 6 -4 13 -10 16 -5 3
-10 -1 -10 -9z"/>
<path d="M1360 4680 c0 -5 5 -10 11 -10 5 0 7 5 4 10 -3 6 -8 10 -11 10 -2 0
-4 -4 -4 -10z"/>
<path d="M1350 4520 c0 -5 5 -10 10 -10 6 0 10 5 10 10 0 6 -4 10 -10 10 -5 0
-10 -4 -10 -10z"/>
<path d="M1362 4190 c0 -19 2 -27 5 -17 2 9 2 25 0 35 -3 9 -5 1 -5 -18z"/>
<path d="M1366 4115 c4 -8 7 -15 9 -15 2 0 5 7 9 15 3 9 0 15 -9 15 -9 0 -12
-6 -9 -15z"/>
<path d="M3949 3890 c-31 -4 -70 -15 -87 -26 -34 -20 -45 -42 -13 -24 62 32
160 -5 211 -80 8 -12 24 -34 35 -48 31 -41 25 -103 -19 -189 -20 -40 -36 -77
-36 -83 0 -6 -13 -35 -30 -65 -16 -30 -30 -60 -30 -67 0 -7 -16 -44 -35 -81
-19 -38 -35 -74 -35 -80 0 -7 -7 -25 -16 -42 -8 -16 -29 -63 -46 -102 -30 -73
-73 -123 -106 -123 -9 0 -24 -5 -32 -10 -10 -7 30 -10 123 -10 85 0 137 4 137
10 0 6 -6 10 -13 10 -17 0 -47 32 -47 49 0 7 15 45 34 84 19 40 36 81 38 92 3
19 12 20 169 23 l166 2 17 -37 c9 -21 21 -46 26 -55 6 -10 10 -24 10 -31 0
-17 26 -72 52 -109 10 -14 18 -32 18 -38 0 -18 94 -133 144 -177 24 -21 77
-55 118 -76 71 -35 79 -37 169 -36 91 0 159 15 166 35 2 6 -21 10 -51 11 -71
2 -123 20 -161 55 -17 15 -36 28 -43 28 -7 0 -12 4 -12 10 0 5 -14 25 -30 44
-28 31 -40 51 -90 146 -53 101 -80 159 -80 173 0 7 -13 41 -30 75 -16 34 -30
67 -30 72 0 6 -16 44 -35 86 -19 41 -35 79 -35 84 0 34 -144 331 -175 360 -14
13 -25 28 -25 34 -1 6 -31 32 -67 59 -51 36 -75 47 -104 47 -20 0 -43 2 -51 4
-7 2 -38 0 -69 -4z m242 -408 c35 -99 53 -149 75 -197 12 -27 25 -60 28 -72
l7 -23 -140 0 -140 0 11 33 c6 17 26 65 44 105 19 41 34 78 34 84 0 14 52 118
59 118 3 0 13 -22 22 -48z"/>
<path d="M3244 3820 l-421 -5 -39 -27 c-22 -16 -44 -28 -50 -28 -14 0 -54 -92
-54 -125 0 -17 7 -41 15 -55 8 -14 19 -35 24 -47 9 -20 31 -40 31 -29 0 3 -7
24 -16 46 -24 59 -12 119 30 158 55 50 64 52 245 52 l171 0 0 -420 0 -419 -22
-21 c-12 -11 -36 -25 -53 -29 -20 -6 39 -9 175 -10 l205 -1 -42 19 c-23 11
-46 28 -52 39 -7 14 -11 156 -11 431 l0 411 125 0 126 0 34 -33 c20 -20 38
-50 44 -73 7 -32 9 -20 10 69 l1 107 -27 -2 c-16 -1 -217 -5 -449 -8z"/>
<path d="M5750 3820 c-159 -3 -235 -8 -217 -14 15 -4 36 -20 47 -33 19 -25 20
-42 20 -427 0 -220 -3 -411 -6 -423 -4 -13 -23 -30 -47 -42 l-42 -20 393 -1
c215 0 392 2 392 4 0 3 16 65 35 137 19 73 32 135 30 137 -2 2 -18 -25 -35
-59 -36 -73 -75 -112 -140 -142 -39 -18 -65 -21 -205 -21 l-160 -1 -3 193 -2
192 133 0 133 0 32 -33 c22 -23 32 -43 32 -65 0 -18 5 -32 10 -32 6 0 10 60
10 161 0 104 -3 158 -10 154 -5 -3 -10 -17 -10 -30 0 -13 -15 -39 -34 -59
l-33 -36 -132 0 -131 0 0 200 0 200 68 0 c64 0 71 -2 110 -35 34 -29 42 -43
45 -78 2 -23 4 9 5 71 2 111 2 112 -20 110 -13 -1 -133 -5 -268 -8z"/>
<path d="M4860 3809 c14 -6 35 -20 47 -31 l23 -21 0 -417 c0 -457 2 -444 -61
-466 l-34 -11 45 -7 c97 -15 148 -30 235 -68 50 -21 97 -43 105 -48 59 -36
350 -170 370 -170 8 0 44 -9 78 -20 43 -14 92 -20 150 -20 124 0 213 33 293
110 32 31 59 63 59 70 0 8 -4 9 -12 3 -47 -36 -237 -54 -353 -33 -27 5 -82 14
-121 19 -39 6 -114 24 -166 41 -52 16 -105 30 -117 30 -12 0 -29 4 -39 9 -9 5
-57 22 -105 37 -55 17 -94 35 -103 48 -12 17 -14 92 -14 449 0 473 -1 464 65
493 26 12 5 13 -170 13 -143 0 -193 -3 -175 -10z"/>
<path d="M5545 1110 c4 -6 11 -8 16 -5 14 9 11 15 -7 15 -8 0 -12 -5 -9 -10z"/>
<path d="M5405 1070 c-3 -5 -2 -10 4 -10 5 0 13 5 16 10 3 6 2 10 -4 10 -5 0
-13 -4 -16 -10z"/>
<path d="M5300 1040 c0 -12 17 -12 45 0 17 7 15 9 -12 9 -18 1 -33 -3 -33 -9z"/>
<path d="M4970 981 c0 -6 -6 -11 -14 -11 -8 0 -18 -4 -21 -10 -4 -6 7 -10 24
-10 31 0 43 21 21 35 -5 3 -10 1 -10 -4z"/>
<path d="M5042 981 c4 -13 18 -16 19 -4 0 4 -5 9 -11 12 -7 2 -11 -2 -8 -8z"/>
<path d="M4848 963 c-32 -8 -19 -18 22 -18 41 0 52 8 24 19 -17 6 -19 6 -46
-1z"/>
</g>
</svg>
